<?xml version="1.0" encoding="UTF-8" standalone="no"?>
<!-- Created with Inkscape (http://www.inkscape.org/) -->

<svg
   xmlns:dc="http://purl.org/dc/elements/1.1/"
   xmlns:cc="http://creativecommons.org/ns#"
   xmlns:rdf="http://www.w3.org/1999/02/22-rdf-syntax-ns#"
   xmlns:svg="http://www.w3.org/2000/svg"
   xmlns="http://www.w3.org/2000/svg"
   xmlns:xlink="http://www.w3.org/1999/xlink"
   xmlns:sodipodi="http://sodipodi.sourceforge.net/DTD/sodipodi-0.dtd"
   xmlns:inkscape="http://www.inkscape.org/namespaces/inkscape"
   width="16"
   height="16"
   id="svg2"
   version="1.1"
   inkscape:version="0.48.4 r9939"
   sodipodi:docname="New document 1">
  <defs
     id="defs4">
    <linearGradient
       id="linearGradient3769">
      <stop
         style="stop-color:#f97207;stop-opacity:1"
         offset="0"
         id="stop3771" />
      <stop
         style="stop-color:#ffffff;stop-opacity:1"
         offset="1"
         id="stop3773" />
    </linearGradient>
    <linearGradient
       id="linearGradient2987">
      <stop
         id="stop2999"
         offset="0"
         style="stop-color:#cf8dc7;stop-opacity:0.09019608;" />
      <stop
         style="stop-color:#0094ff;stop-opacity:0;"
         offset="1"
         id="stop2991" />
    </linearGradient>
    <linearGradient
       inkscape:collect="always"
       xlink:href="#linearGradient2987"
       id="linearGradient2993"
       x1="0.09248545"
       y1="0.13872823"
       x2="15.969172"
       y2="15.922929"
       gradientUnits="userSpaceOnUse" />
    <linearGradient
       inkscape:collect="always"
       xlink:href="#linearGradient3769"
       id="linearGradient3775"
       x1="-2.810252e-016"
       y1="0.077071249"
       x2="16"
       y2="15.953757"
       gradientUnits="userSpaceOnUse" />
  </defs>
  <sodipodi:namedview
     id="base"
     pagecolor="#ffffff"
     bordercolor="#666666"
     borderopacity="1.0"
     inkscape:pageopacity="0.0"
     inkscape:pageshadow="2"
     inkscape:zoom="32.4375"
     inkscape:cx="3.1907514"
     inkscape:cy="8"
     inkscape:document-units="px"
     inkscape:current-layer="layer1"
     showgrid="false"
     showguides="true"
     inkscape:guide-bbox="true"
     inkscape:window-width="1366"
     inkscape:window-height="706"
     inkscape:window-x="-8"
     inkscape:window-y="-8"
     inkscape:window-maximized="1" />
  <metadata
     id="metadata7">
    <rdf:RDF>
      <cc:Work
         rdf:about="">
        <dc:format>image/svg+xml</dc:format>
        <dc:type
           rdf:resource="http://purl.org/dc/dcmitype/StillImage" />
        <dc:title></dc:title>
      </cc:Work>
    </rdf:RDF>
  </metadata>
  <g
     inkscape:label="Layer 1"
     inkscape:groupmode="layer"
     id="layer1"
     transform="translate(0,-1036.3622)">
    <rect
       style="fill:url(#linearGradient3775);fill-opacity:1"
       id="rect2985"
       width="16.061657"
       height="16"
       x="0"
       y="0.030828517"
       transform="translate(0,1036.3622)" />
    <path
       style="fill:#000000;fill-opacity:1"
       id="path3832"
       d="m 1.7156596,12.673451 c -0.2469222,0.142035 -0.4938851,0.283999 -0.74076644,0.426104 -0.042358,0.02438 0.085524,-0.04739 0.12719614,-0.07293 0.06386,-0.03913 0.1271721,-0.07921 0.1893111,-0.12102 0.3114298,-0.209547 0.6091963,-0.438302 0.9079692,-0.665202 0.4592335,-0.362552 0.8975643,-0.751204 1.307413,-1.168855 0.2298276,-0.234203 0.2751012,-0.290183 0.48796,-0.52838 C 4.3964926,10.111585 4.7004762,9.6086948 4.9702128,9.0879213 5.1473742,8.7369503 5.289448,8.3699436 5.426828,8.002042 5.4882002,7.8282092 5.5511975,7.655498 5.6290166,7.488356 c 0.00719,-0.016078 0.015396,-0.031738 0.021566,-0.048233 0.023302,-0.062306 0.033533,-0.1297723 0.050404,-0.1938462 C 5.7315322,7.1302653 5.7395096,7.1106105 5.7781045,6.9879852 5.9496897,6.4993071 6.1299149,6.0136911 6.2911623,5.5214778 6.4240955,5.0812862 6.5437412,4.6367704 6.6355811,4.18605 6.6724798,4.0049633 6.7175995,3.7419711 6.7501208,3.5571622 6.8108026,3.1740826 6.8677289,2.7905071 6.9324644,2.4080784 c 0.00206,-0.077827 0.048142,-0.173931 0.021508,-0.2508831 0,0 0.8811414,-0.3603491 0.8811414,-0.3603491 l 0,0 c -0.00612,-0.0049 -0.010649,-0.016126 -0.018364,-0.014711 -0.025786,0.00473 -0.078566,0.221176 -0.08521,0.2406951 C 7.6234553,2.415422 7.5441328,2.8147873 7.4598538,3.213013 7.3126139,3.8716554 7.1911473,4.5365984 7.0027481,5.1854928 6.8629984,5.6620415 6.6957731,6.1299965 6.5702164,6.6107487 6.5599377,6.6553087 6.548709,6.6996602 6.5393804,6.7444288 6.5142876,6.8648503 6.5090165,6.989186 6.4722201,7.1071165 6.4384852,7.1698397 6.399272,7.2300869 6.3670713,7.2935459 6.3103303,7.4053673 6.2641447,7.5228181 6.213858,7.6375253 6.0576261,8.015559 5.9065972,8.3966532 5.7086923,8.7555497 5.5753526,9.0065144 5.4409429,9.2576782 5.2861837,9.4963917 5.113222,9.7631823 4.9153688,10.012696 4.7005443,10.246921 4.1313684,10.861509 3.5292646,11.444475 2.8759198,11.970027 2.5744224,12.209856 2.577047,12.209168 2.2890793,12.433265 c -0.07441,0.05791 -0.2695922,0.210288 -0.360993,0.274552 -0.2994916,0.210571 -0.693147,0.281683 -0.94824198,0.554217 0,0 0.73581528,-0.588583 0.73581528,-0.588583 z"
       inkscape:connector-curvature="0"
       transform="translate(0,1036.3622)" />
    <path
       style="fill:#000000;fill-opacity:1"
       id="path3836"
       d="m 12.226841,2.0317106 c -0.05213,0.2624126 -0.116856,0.5221883 -0.172306,0.7838674 -0.05254,0.2479382 -0.106928,0.5429906 -0.153842,0.7907385 -0.127931,0.6994351 -0.248097,1.4001761 -0.363339,2.1017919 -0.07754,0.4666524 -0.160287,0.9323389 -0.218699,1.4018525 -0.04983,0.4174603 -0.05281,0.8378509 -0.04508,1.2575062 0.0053,0.2006958 0.007,0.4014125 0.02069,0.6017401 0.01188,0.1604386 0.04576,0.3189029 0.08514,0.4746411 0.03727,0.1165152 0.06445,0.2349424 0.08644,0.3551212 0.01585,0.090303 0.04213,0.1778219 0.07624,0.2626835 0.04806,0.09889 0.118751,0.181016 0.196476,0.257449 0.06161,0.05188 0.123939,0.106602 0.195585,0.144629 0.02964,0.01573 0.06121,0.02756 0.09174,0.04149 0.09468,0.04558 0.1945,0.07883 0.292333,0.116631 0.09115,0.04315 0.181408,0.08974 0.265891,0.144964 0.06154,0.04237 0.13232,0.05157 0.204875,0.05622 0,0 -0.764488,0.540352 -0.764488,0.540352 l 0,0 c -0.0811,-0.01567 -0.157307,-0.04232 -0.224052,-0.09264 -0.08033,-0.05002 -0.162821,-0.09721 -0.250959,-0.132215 -0.100588,-0.0381 -0.202622,-0.07302 -0.29837,-0.122621 -0.109216,-0.05711 -0.207614,-0.131385 -0.297126,-0.216145 -0.08458,-0.08631 -0.16871,-0.174728 -0.225452,-0.282669 -0.0035,-0.0082 -0.03338,-0.07859 -0.0353,-0.0847 -0.02018,-0.06416 -0.02738,-0.13338 -0.04218,-0.198776 -0.02354,-0.119025 -0.04589,-0.2378705 -0.07757,-0.3551257 -0.03636,-0.162273 -0.06875,-0.3257609 -0.08725,-0.4911381 -0.01217,-0.2084206 -0.0047,-0.4165716 0.008,-0.6249033 0.02541,-0.4300566 0.05689,-0.8598143 0.09122,-1.2892379 0.04792,-0.475257 0.113232,-0.9484392 0.226912,-1.413089 0.15806,-0.7078491 0.31531,-1.4163268 0.430868,-2.1326665 0.07279,-0.4853547 0.152854,-0.9760809 0.144522,-1.468244 0,0 0.839039,-0.4275119 0.839039,-0.4275119 z"
       inkscape:connector-curvature="0"
       transform="translate(0,1036.3622)" />
    <path
       style="fill:#000000;fill-opacity:1"
       id="path3844"
       d="m 7.8513534,1.754371 c -0.033733,0.1299751 -0.061859,0.2614835 -0.09304,0.3921409 -0.053541,0.2639224 -0.084555,0.5318966 -0.113839,0.7994203 -0.032768,0.3165444 -0.073556,0.6321811 -0.1174404,0.9473527 -0.024053,0.1710281 -0.043227,0.3425913 -0.052332,0.515072 -0.00481,0.1121166 -0.00315,0.2242764 -0.00268,0.3364452 -1.682e-4,0.1131077 -7.839e-4,0.2262142 -0.00109,0.3393216 -6.07e-4,0.1116147 3.647e-4,0.2232318 0.00288,0.3348189 -0.01108,0.1401743 0.00575,0.2767441 0.034841,0.4135873 0.1224653,0.3847606 0.3259593,0.7087112 0.5744386,1.0229472 0.1079974,0.1146609 0.2169471,0.257065 0.3747035,0.3035662 0.053949,0.017389 0.1077559,0.036506 0.1634049,0.048021 0.00882,0.0012 0.017826,0.00141 0.026448,0.00361 0.026238,0.00939 0.032943,0.012569 0.059662,0.019156 0.031031,0.00765 0.059805,0.01097 0.090223,0.021479 0.058124,0.019244 0.1191726,0.023214 0.1798712,0.025451 0.061947,0.00158 0.1239141,3.634e-4 0.1858673,0.00125 0.066629,-0.00558 0.1385974,0.012289 0.2025252,-0.00959 0.053621,-0.018355 0.1105151,-0.020113 0.166593,-0.021848 0.00997,-1.681e-4 0.020118,0.00141 0.029901,-5.043e-4 0.00826,-0.00162 0.01548,-0.00659 0.02322,-0.00989 0.00921,-0.00199 0.018372,-0.00425 0.027642,-0.00596 0.032044,-0.00589 0.060463,-0.0077 0.091318,-0.018804 0.058404,-0.032999 0.1235108,-0.04965 0.1824896,-0.08175 -0.022544,0.00602 0.08011,-0.047479 0.059952,-0.035831 C 9.6902146,7.2421698 8.917103,7.6819292 9.1759182,7.5373057 9.2064564,7.5202412 9.7765142,7.1598818 10.070889,7.0263784 10.00197,7.0532341 10.228167,6.944194 10.167225,6.9794095 9.9112245,7.1273409 9.1482471,7.5791976 9.3972344,7.4197443 9.7965816,7.1639996 9.9623984,7.0784422 10.262529,6.9224462 10.007725,7.0692241 9.2303522,7.4843185 9.4981159,7.3627801 9.7918451,7.2294559 10.060026,7.0458165 10.340757,6.8869384 c 0.01424,-0.00806 0.05646,-0.033103 0.04226,-0.024964 -1.5619955,0.8956357 -0.3955626,0.218504 0.134921,-0.076704 0.30926,-0.1461006 0.0574,-0.028557 -0.7166137,0.415209 -0.011117,0.00637 0.02257,-0.012182 0.033418,-0.019001 0.032858,-0.020654 0.065702,-0.041467 0.098343,-0.06254 0.065282,-0.033655 0.1133096,-0.085485 0.1621876,-0.1382627 0.02359,-0.033289 0.05403,-0.058627 0.07267,-0.095289 0,0 0.850841,-0.4032107 0.850841,-0.4032107 l 0,0 c -0.0077,0.049471 -0.01816,0.097282 -0.06058,0.1290353 -0.05106,0.075096 0.01532,-0.019118 -0.04274,0.052359 -0.03397,0.041819 -0.0641,0.087581 -0.112032,0.1157822 -0.323694,0.2138746 -0.664118,0.404508 -1.007757,0.5881272 -0.015074,0.00813 -0.060028,0.032992 -0.045222,0.024386 C 9.9994284,7.247145 10.749236,6.8179783 10.498213,6.9591246 10.216793,7.1173619 9.9396382,7.2830774 9.659254,7.4431424 c -0.015128,0.00864 -0.062442,0.030786 -0.047407,0.021988 0.073511,-0.043017 2.0699082,-1.1947834 -0.076956,0.043964 C 9.2897534,7.6507987 10.522379,6.9549858 10.270477,7.084282 9.9538649,7.2467921 9.6571647,7.4494699 9.3400467,7.6125215 9.3199151,7.6242867 9.2586946,7.6581341 9.2788717,7.646447 9.5356458,7.4977178 10.309041,7.0569144 10.049914,7.2015043 9.7841413,7.3498018 9.4626796,7.5689087 9.1531175,7.7124705 c -0.064128,0.024267 -0.1272009,0.053743 -0.1944299,0.067962 -0.061174,0.00829 -0.120611,0.025715 -0.1826978,0.024247 -0.054891,0.00651 -0.1083966,0.020221 -0.1633481,0.025646 -0.069052,-0.00367 -0.1382829,-0.00123 -0.2074072,-0.00165 -0.063926,7.845e-4 -0.1279822,-1.1e-6 -0.1916774,-0.006 C 8.1490951,7.8151281 8.0859559,7.8017369 8.0238749,7.7826254 7.9640031,7.7712912 7.9058519,7.7529072 7.8463777,7.7399328 7.7893715,7.7218686 7.7316521,7.7056167 7.6801835,7.6740313 7.5329018,7.5827422 7.4381755,7.432518 7.3442866,7.2909148 7.230525,7.1086637 7.1227447,6.922564 7.007646,6.7411809 6.9254584,6.6116622 6.8521059,6.5126383 6.776641,6.3819593 6.7544946,6.3436094 6.7359116,6.3033092 6.715547,6.2639842 6.6687035,6.125721 6.6408003,5.9876404 6.6456517,5.8409222 6.6481208,5.7284363 6.6491145,5.61592 6.6482829,5.5034083 6.6477105,5.3909341 6.6466175,5.2784651 6.6457282,5.1659933 6.6458358,5.0508404 6.6466543,4.935497 6.6533338,4.8205406 6.6660166,4.6383172 6.6960779,4.4584834 6.7362797,4.2802904 6.7942772,3.9671466 6.8436872,3.6521796 6.8645525,3.3340811 c 0.02126,-0.2655449 0.044107,-0.5312041 0.084224,-0.7946904 0.01889,-0.1237746 0.04223,-0.2478245 0.051839,-0.3724924 0,0 0.8507372,-0.4125273 0.8507372,-0.4125273 z"
       inkscape:connector-curvature="0"
       transform="translate(0,1036.3622)" />
  </g>
</svg>
