<?xml version="1.0" encoding="UTF-8" standalone="no"?>
<!-- Created with Inkscape (http://www.inkscape.org/) -->

<svg
   xmlns:dc="http://purl.org/dc/elements/1.1/"
   xmlns:cc="http://creativecommons.org/ns#"
   xmlns:rdf="http://www.w3.org/1999/02/22-rdf-syntax-ns#"
   xmlns:svg="http://www.w3.org/2000/svg"
   xmlns="http://www.w3.org/2000/svg"
   xmlns:sodipodi="http://sodipodi.sourceforge.net/DTD/sodipodi-0.dtd"
   xmlns:inkscape="http://www.inkscape.org/namespaces/inkscape"
   width="16"
   height="16"
   id="svg2"
   version="1.1"
   inkscape:version="0.48.4 r9939"
   sodipodi:docname="icon_batch_chp_V01.svg"
   inkscape:export-filename="C:\Users\Santiago Salas\git\literature-implementations-py\utils\icon_batch_chp_32X32.png"
   inkscape:export-xdpi="180"
   inkscape:export-ydpi="180">
  <defs
     id="defs4" />
  <sodipodi:namedview
     id="base"
     pagecolor="#ffffff"
     bordercolor="#666666"
     borderopacity="1.0"
     inkscape:pageopacity="0.0"
     inkscape:pageshadow="2"
     inkscape:zoom="34.266435"
     inkscape:cx="2.3554872"
     inkscape:cy="7.8026371"
     inkscape:document-units="px"
     inkscape:current-layer="layer1"
     showgrid="false"
     inkscape:window-width="1600"
     inkscape:window-height="838"
     inkscape:window-x="-8"
     inkscape:window-y="-8"
     inkscape:window-maximized="1"
     inkscape:snap-center="false"
     inkscape:snap-object-midpoints="true"
     inkscape:object-nodes="true"
     inkscape:snap-midpoints="true" />
  <metadata
     id="metadata7">
    <rdf:RDF>
      <cc:Work
         rdf:about="">
        <dc:format>image/svg+xml</dc:format>
        <dc:type
           rdf:resource="http://purl.org/dc/dcmitype/StillImage" />
        <dc:title></dc:title>
      </cc:Work>
    </rdf:RDF>
  </metadata>
  <g
     inkscape:label="Layer 1"
     inkscape:groupmode="layer"
     id="layer1"
     transform="translate(0,-1036.3622)">
    <path
       sodipodi:type="arc"
       id="path2989"
       sodipodi:cx="7.4428711"
       sodipodi:cy="8.8406668"
       sodipodi:rx="6.9466801"
       sodipodi:ry="6.8049107"
       d="m 14.389551,8.8406668 c 0,3.7582482 -3.110134,6.8049102 -6.9466799,6.8049102 -3.8365455,0 -6.94668008,-3.046662 -6.94668008,-6.8049102 0,-3.7582484 3.11013458,-6.8049107 6.94668008,-6.8049107 3.8365459,0 6.9466799,3.0466623 6.9466799,6.8049107 z"
       transform="matrix(0.71976829,0,0,0.7347635,2.5900152,1035.5664)"
       style="fill:#0094ff;fill-opacity:1" />
    <path
       sodipodi:type="arc"
       id="path2989-1"
       sodipodi:cx="7.4428711"
       sodipodi:cy="8.8406668"
       sodipodi:rx="6.9466801"
       sodipodi:ry="6.8049107"
       d="M 0.49619102,8.8406665 C 0.4961912,5.0824181 3.606326,2.0357559 7.4428714,2.0357561 c 3.8365456,2e-7 6.9466796,3.0466624 6.9466796,6.8049106 l -6.9466799,10e-8 z"
       transform="matrix(0.66835626,0,0,0.6822804,2.9726683,1036.0304)"
       style="fill:#ffffff"
       sodipodi:start="3.1415927"
       sodipodi:end="6.2831853" />
    <rect
       style="fill:#000000"
       id="rect3009"
       width="3.5714285"
       height="0.39960039"
       x="6.182528"
       y="1043.9314" />
    <path
       style="fill:none;stroke:#000000;stroke-width:0.5;stroke-linecap:butt;stroke-linejoin:miter;stroke-miterlimit:4;stroke-opacity:1;stroke-dasharray:none"
       d="m 8.0092533,1044.2785 c 0.092546,-7.8898 0.092546,-7.8898 0.092546,-7.8898"
       id="path3013"
       inkscape:connector-curvature="0" />
    <path
       sodipodi:type="arc"
       style="fill:none;stroke:#020000;stroke-width:0.75744118;stroke-linejoin:round;stroke-miterlimit:4;stroke-opacity:1;stroke-dasharray:none;stroke-dashoffset:0"
       id="path3790"
       sodipodi:cx="-2.5015569"
       sodipodi:cy="5.9532065"
       sodipodi:rx="4.1512322"
       sodipodi:ry="2.2311182"
       d="M 0.79791617,7.3071566 C -0.59338183,8.286541 -3.1984761,8.4743049 -5.0207247,7.7265389 -6.0562513,7.301607 -6.6605291,6.6400391 -6.6527144,5.939824"
       transform="matrix(1.1614622,0,0,2.161024,10.852622,1029.1972)"
       sodipodi:start="0.65208914"
       sodipodi:end="3.1475908"
       sodipodi:open="true" />
    <path
       style="fill:none;stroke:#000000;stroke-width:1.20000005;stroke-linecap:round;stroke-linejoin:round;stroke-miterlimit:4;stroke-opacity:1;stroke-dasharray:none"
       d="m 11.772729,1044.9978 c 0.535859,4.1992 3.606753,6.7516 3.606753,6.7516"
       id="path4002"
       inkscape:connector-curvature="0" />
    <path
       sodipodi:type="arc"
       style="fill:#ff0000;fill-opacity:1;stroke:#020000;stroke-width:0;stroke-linejoin:round;stroke-miterlimit:4;stroke-opacity:1;stroke-dasharray:none;stroke-dashoffset:0"
       id="path3834-4"
       sodipodi:cx="-3.8672717"
       sodipodi:cy="5.0878034"
       sodipodi:rx="1.2440175"
       sodipodi:ry="1.7443289"
       d="m -2.6232542,5.0878034 c 0,0.9633662 -0.5569656,1.7443288 -1.2440175,1.7443288 -0.6870518,0 -1.2440174,-0.7809626 -1.2440174,-1.7443288 0,-0.9633663 0.5569656,-1.7443289 1.2440174,-1.7443289 0.6870519,0 1.2440175,0.7809626 1.2440175,1.7443289 z"
       transform="matrix(0.48230833,0,0,0.34397184,13.637946,1043.2477)" />
    <path
       style="fill:#ff0000;fill-opacity:1;stroke:#020000;stroke-width:1.20000005;stroke-linecap:round;stroke-linejoin:round;stroke-miterlimit:4;stroke-opacity:1;stroke-dasharray:none;stroke-dashoffset:0"
       id="path3972"
       d="m 0.70641062,1051.6714 c 0.008822,-0.01 0.0184815,-0.014 0.0264655,-0.026 0.001698,0 -0.001197,-0.01 2.4461e-4,-0.012 0.11746625,-0.2471 0.0309103,-0.025 0.16971834,-0.352 0.14149963,-0.3339 0.16181823,-0.4164 0.29767653,-0.8091 0.3860402,-1.1801 0.7325072,-2.4117 1.0484342,-3.6741 0.06564,-0.2621 0.1284557,-0.5273 0.1926836,-0.791 0.184082,-0.7781 0.355284,-1.5708 0.480729,-2.3963 0.049249,-0.3241 0.063473,-0.458 0.1018739,-0.7734 0.029954,-0.2681 0.056476,-0.5387 0.066102,-0.8132 0,0 0.046749,-0.047 0.046749,-0.047 l 0,0 c -0.012019,0.2777 -0.041055,0.5508 -0.072717,0.8217 -0.03911,0.308 -0.056875,0.4628 -0.1057311,0.7777 -0.128633,0.8291 -0.3032138,1.6241 -0.4897043,2.4057 -0.1649237,0.6737 -0.2302927,0.9528 -0.4069736,1.624 -0.2550336,0.9686 -0.530522,1.9152 -0.8263487,2.8353 -0.1322141,0.3896 -0.1520673,0.4719 -0.29003067,0.8039 -0.0307216,0.074 -0.0636204,0.1439 -0.0965368,0.214 -0.0538183,0.1141 -0.11078145,0.221 -0.18523857,0.2787 0,0 0.0426031,-0.066 0.0426031,-0.066 z"
       inkscape:connector-curvature="0" />
    <path
       sodipodi:type="arc"
       style="fill:#ff0000;fill-opacity:1;stroke:#020000;stroke-width:0;stroke-linejoin:round;stroke-miterlimit:4;stroke-opacity:1;stroke-dasharray:none;stroke-dashoffset:0"
       id="path3834-4-0"
       sodipodi:cx="-3.8672717"
       sodipodi:cy="5.0878034"
       sodipodi:rx="1.2440175"
       sodipodi:ry="1.7443289"
       d="m -2.6232542,5.0878034 c 0,0.9633662 -0.5569656,1.7443288 -1.2440175,1.7443288 -0.6870518,0 -1.2440174,-0.7809626 -1.2440174,-1.7443288 0,-0.9633663 0.5569656,-1.7443289 1.2440174,-1.7443289 0.6870519,0 1.2440175,0.7809626 1.2440175,1.7443289 z"
       transform="matrix(0.48230833,0,0,0.34397184,5.0023052,1040.2274)" />
  </g>
</svg>
