<?xml version="1.0" encoding="UTF-8" standalone="no"?>
<!-- Created with Inkscape (http://www.inkscape.org/) -->

<svg
   xmlns:osb="http://www.openswatchbook.org/uri/2009/osb"
   xmlns:dc="http://purl.org/dc/elements/1.1/"
   xmlns:cc="http://creativecommons.org/ns#"
   xmlns:rdf="http://www.w3.org/1999/02/22-rdf-syntax-ns#"
   xmlns:svg="http://www.w3.org/2000/svg"
   xmlns="http://www.w3.org/2000/svg"
   xmlns:sodipodi="http://sodipodi.sourceforge.net/DTD/sodipodi-0.dtd"
   xmlns:inkscape="http://www.inkscape.org/namespaces/inkscape"
   width="16"
   height="16"
   id="svg2"
   version="1.1"
   inkscape:version="0.91 r13725"
   sodipodi:docname="icon_batch_chp.svg"
   inkscape:export-filename="C:\Users\ssv\git\literature-implementations-py\utils\icon_batch_chp_96X96.png"
   inkscape:export-xdpi="540"
   inkscape:export-ydpi="540">
  <defs
     id="defs4">
    <linearGradient
       id="linearGradient5634"
       osb:paint="gradient">
      <stop
         style="stop-color:#ffffff;stop-opacity:1;"
         offset="0"
         id="stop5636" />
      <stop
         style="stop-color:#ffffff;stop-opacity:0;"
         offset="1"
         id="stop5638" />
    </linearGradient>
    <linearGradient
       id="linearGradient5622"
       osb:paint="gradient">
      <stop
         style="stop-color:#000000;stop-opacity:1;"
         offset="0"
         id="stop5624" />
      <stop
         style="stop-color:#000000;stop-opacity:0;"
         offset="1"
         id="stop5626" />
    </linearGradient>
    <linearGradient
       id="linearGradient5610"
       osb:paint="solid">
      <stop
         style="stop-color:#ced552;stop-opacity:1;"
         offset="0"
         id="stop5612" />
    </linearGradient>
    <linearGradient
       id="linearGradient5596"
       osb:paint="solid">
      <stop
         style="stop-color:#000000;stop-opacity:1;"
         offset="0"
         id="stop5598" />
    </linearGradient>
  </defs>
  <sodipodi:namedview
     id="base"
     pagecolor="#ffffff"
     bordercolor="#666666"
     borderopacity="1.0"
     inkscape:pageopacity="0.0"
     inkscape:pageshadow="2"
     inkscape:zoom="30.125"
     inkscape:cx="6.406639"
     inkscape:cy="8"
     inkscape:document-units="px"
     inkscape:current-layer="layer1"
     showgrid="false"
     inkscape:window-width="1280"
     inkscape:window-height="657"
     inkscape:window-x="-8"
     inkscape:window-y="-8"
     inkscape:window-maximized="1"
     inkscape:snap-center="false"
     inkscape:snap-object-midpoints="true"
     inkscape:object-nodes="true"
     inkscape:snap-midpoints="true" />
  <metadata
     id="metadata7">
    <rdf:RDF>
      <cc:Work
         rdf:about="">
        <dc:format>image/svg+xml</dc:format>
        <dc:type
           rdf:resource="http://purl.org/dc/dcmitype/StillImage" />
        <dc:title />
      </cc:Work>
    </rdf:RDF>
  </metadata>
  <g
     inkscape:label="Layer 1"
     inkscape:groupmode="layer"
     id="layer1"
     transform="translate(0,-1036.3622)">
    <rect
       style="fill:#ffffff;fill-rule:evenodd;stroke:#000000;stroke-width:0.946;stroke-linecap:round;stroke-linejoin:round;stroke-opacity:1;fill-opacity:1;stroke-miterlimit:4;stroke-dasharray:none;opacity:1"
       id="rect3350"
       width="13.932592"
       height="13.932592"
       x="1.0867951"
       y="1037.3428" />
    <circle
       id="path2989"
       style="fill:#0094ff;fill-opacity:1"
       cx="7.9588385"
       cy="1042.4084"
       r="4.25" />
    <path
       sodipodi:type="arc"
       id="path2989-1"
       sodipodi:cx="7.9588385"
       sodipodi:cy="1042.4084"
       sodipodi:rx="3.9464285"
       sodipodi:ry="3.9464285"
       d="m 4.0124099,1042.4084 a 3.9464285,3.9464285 0 0 1 3.9464286,-3.9464 3.9464285,3.9464285 0 0 1 3.9464285,3.9464 l -3.9464285,0 z"
       style="fill:#ffffff"
       sodipodi:start="3.1415927"
       sodipodi:end="6.2831853" />
    <rect
       style="fill:#000000"
       id="rect3009"
       width="3.0357141"
       height="0.33966032"
       x="6.4589028"
       y="1043.9972" />
    <path
       style="fill:none;stroke:#000000;stroke-width:0.42500001;stroke-linecap:butt;stroke-linejoin:miter;stroke-miterlimit:4;stroke-dasharray:none;stroke-opacity:1"
       d="m 8.0116194,1044.2923 c 0.078664,-6.7064 0.078664,-6.7064 0.078664,-6.7064"
       id="path3013"
       inkscape:connector-curvature="0" />
    <path
       sodipodi:type="arc"
       style="fill:none;stroke:#020000;stroke-width:1.01999998;stroke-linejoin:round;stroke-miterlimit:4;stroke-dasharray:none;stroke-dashoffset:0;stroke-opacity:1"
       id="path3790"
       sodipodi:cx="7.9588385"
       sodipodi:cy="1042.4084"
       sodipodi:rx="4.0982742"
       sodipodi:ry="4.0982752"
       d="m 11.21622,1044.8955 a 4.0982742,4.0982752 0 0 1 -4.5816902,1.3914 4.0982742,4.0982752 0 0 1 -2.7738918,-3.903"
       sodipodi:start="0.65208914"
       sodipodi:end="3.1475908"
       sodipodi:open="true" />
    <path
       style="fill:none;stroke:#000000;stroke-width:1.0200001;stroke-linecap:round;stroke-linejoin:round;stroke-miterlimit:4;stroke-dasharray:none;stroke-opacity:1"
       d="m 11.210574,1044.9037 c 0.45548,3.5693 3.06574,5.7388 3.06574,5.7388"
       id="path4002"
       inkscape:connector-curvature="0" />
    <circle
       style="fill:#ff0000;fill-opacity:1;stroke:#020000;stroke-width:0;stroke-linejoin:round;stroke-miterlimit:4;stroke-dasharray:none;stroke-dashoffset:0;stroke-opacity:1"
       id="path3834-4"
       cx="11.210573"
       cy="1044.9037"
       r="0.50999999" />
    <path
       style="fill:#ff0000;fill-opacity:1;stroke:#020000;stroke-width:1.0200001;stroke-linecap:round;stroke-linejoin:round;stroke-miterlimit:4;stroke-dasharray:none;stroke-dashoffset:0;stroke-opacity:1"
       id="path3972"
       d="m 1.8042031,1050.5762 c 0.0075,-0.01 0.015709,-0.012 0.022496,-0.022 0.00144,0 -0.00102,-0.01 2.079e-4,-0.01 0.099846,-0.21 0.026274,-0.021 0.1442606,-0.2992 0.1202747,-0.2838 0.1375455,-0.3539 0.2530251,-0.6877 0.3281341,-1.0031 0.6226311,-2.0499 0.891169,-3.123 0.055794,-0.2228 0.1091874,-0.4482 0.1637811,-0.6723 0.1564697,-0.6614 0.3019914,-1.3352 0.4086196,-2.0369 0.041862,-0.2755 0.053952,-0.3893 0.086593,-0.6574 0.025461,-0.2279 0.048005,-0.4579 0.056187,-0.6912 0,0 0.039737,-0.04 0.039737,-0.04 l 0,0 c -0.010216,0.236 -0.034897,0.4681 -0.061809,0.6984 -0.033243,0.2618 -0.048344,0.3934 -0.089871,0.661 -0.109338,0.7048 -0.2577317,1.3805 -0.4162486,2.0449 -0.1401852,0.5726 -0.1957488,0.8099 -0.3459276,1.3804 -0.2167785,0.8233 -0.4509437,1.6279 -0.7023964,2.41 -0.112382,0.3312 -0.1292572,0.4011 -0.246526,0.6833 -0.026113,0.063 -0.054077,0.1223 -0.082056,0.1819 -0.045746,0.097 -0.094164,0.1879 -0.1574528,0.2369 0,0 0.036213,-0.056 0.036213,-0.056 z"
       inkscape:connector-curvature="0" />
    <circle
       style="fill:#ff0000;fill-opacity:1;stroke:#020000;stroke-width:0;stroke-linejoin:round;stroke-miterlimit:4;stroke-dasharray:none;stroke-dashoffset:0;stroke-opacity:1"
       id="path3834-4-0"
       cx="3.8702788"
       cy="1042.3364"
       r="0.50999999" />
  </g>
</svg>
